<svg xmlns="http://www.w3.org/2000/svg" width="21.5" height="16.377" viewBox="0 0 21.5 16.377">
  <g id="email-line" transform="translate(0 -61)">
    <g id="Group_34841" data-name="Group 34841" transform="translate(0 61)">
      <path id="Path_36827" data-name="Path 36827" d="M19.61,61H1.89A1.893,1.893,0,0,0,0,62.89v12.6a1.893,1.893,0,0,0,1.89,1.89H19.61a1.893,1.893,0,0,0,1.89-1.89V62.89A1.893,1.893,0,0,0,19.61,61Zm-.261,1.26L10.79,70.819,2.157,62.26ZM1.26,75.226V63.144l6.067,6.015Zm.891.891,6.071-6.071,2.127,2.109a.63.63,0,0,0,.889,0l2.074-2.074,6.038,6.038Zm18.09-.891L14.2,69.188l6.038-6.038Z" transform="translate(0 -61)" fill="#fff"/>
    </g>
  </g>
</svg>
