<svg xmlns="http://www.w3.org/2000/svg" width="17" height="21.013" viewBox="0 0 17 21.013">
  <g id="location-3" transform="translate(-48.886)">
    <g id="Group_34838" data-name="Group 34838" transform="translate(48.886)">
      <g id="Group_34837" data-name="Group 34837" transform="translate(0)">
        <path id="Path_36825" data-name="Path 36825" d="M64.361,3.653a8.484,8.484,0,0,0-13.949,0,8.485,8.485,0,0,0-.988,7.818A6.683,6.683,0,0,0,50.655,13.5l6.172,7.249a.734.734,0,0,0,1.119,0l6.17-7.247a6.689,6.689,0,0,0,1.231-2.031A8.487,8.487,0,0,0,64.361,3.653Zm-.39,7.308A5.241,5.241,0,0,1,63,12.549l0,0-5.612,6.592-5.616-6.6a5.244,5.244,0,0,1-.971-1.592,7.019,7.019,0,0,1,.82-6.468,7.015,7.015,0,0,1,11.532,0A7.02,7.02,0,0,1,63.971,10.962Z" transform="translate(-48.886)" fill="#fff"/>
      </g>
    </g>
    <g id="Group_34840" data-name="Group 34840" transform="translate(53.272 4.359)">
      <g id="Group_34839" data-name="Group 34839">
        <path id="Path_36826" data-name="Path 36826" d="M159.868,106.219a4.114,4.114,0,1,0,4.114,4.114A4.119,4.119,0,0,0,159.868,106.219Zm0,6.759a2.645,2.645,0,1,1,2.645-2.645A2.648,2.648,0,0,1,159.868,112.978Z" transform="translate(-155.754 -106.219)" fill="#fff"/>
      </g>
    </g>
  </g>
</svg>
