<svg xmlns="http://www.w3.org/2000/svg" width="23.237" height="23.271" viewBox="0 0 23.237 23.271">
  <g id="phone" transform="translate(-0.344)">
    <g id="Group_34842" data-name="Group 34842" transform="translate(0.344 0)">
      <path id="Path_36828" data-name="Path 36828" d="M18.719,40.475a2.289,2.289,0,0,0-1.66-.761,2.367,2.367,0,0,0-1.68.756l-1.552,1.547c-.128-.069-.255-.133-.378-.2-.177-.088-.344-.172-.486-.26A16.868,16.868,0,0,1,8.92,37.877a9.951,9.951,0,0,1-1.326-2.092c.4-.368.776-.751,1.139-1.12.138-.138.275-.28.413-.417a2.253,2.253,0,0,0,0-3.4L7.805,29.508c-.152-.152-.309-.309-.457-.467-.295-.3-.6-.619-.923-.914a2.325,2.325,0,0,0-1.645-.722,2.406,2.406,0,0,0-1.67.722l-.01.01L1.43,29.822A3.593,3.593,0,0,0,.365,32.106,8.61,8.61,0,0,0,.993,35.75a21.147,21.147,0,0,0,3.757,6.267,23.113,23.113,0,0,0,7.7,6.026,11.991,11.991,0,0,0,4.322,1.277c.1,0,.211.01.309.01a3.7,3.7,0,0,0,2.834-1.218c0-.01.015-.015.02-.025a11.166,11.166,0,0,1,.859-.889c.211-.2.427-.413.638-.634a2.45,2.45,0,0,0,.742-1.7,2.36,2.36,0,0,0-.756-1.685Zm1.758,5.172s0,0,0,0c-.192.206-.388.393-.6.6a12.916,12.916,0,0,0-.948.982,2.368,2.368,0,0,1-1.847.781c-.074,0-.152,0-.226,0a10.652,10.652,0,0,1-3.831-1.149,21.817,21.817,0,0,1-7.249-5.678,19.939,19.939,0,0,1-3.536-5.889,7.013,7.013,0,0,1-.55-3.075,2.255,2.255,0,0,1,.678-1.459l1.675-1.675a1.116,1.116,0,0,1,.747-.349,1.051,1.051,0,0,1,.717.344l.015.015c.3.28.584.57.884.879.152.157.309.314.467.476l1.341,1.341a.937.937,0,0,1,0,1.523c-.142.142-.28.285-.422.422-.413.422-.805.815-1.233,1.2-.01.01-.02.015-.025.025a1,1,0,0,0-.255,1.115l.015.044A10.765,10.765,0,0,0,7.879,38.7l0,0a18.027,18.027,0,0,0,4.361,3.968,6.707,6.707,0,0,0,.6.329c.177.088.344.172.486.26.02.01.039.025.059.034a1.065,1.065,0,0,0,.486.123,1.05,1.05,0,0,0,.747-.339l1.68-1.68a1.111,1.111,0,0,1,.742-.368,1,1,0,0,1,.707.359l.01.01,2.706,2.706A.971.971,0,0,1,20.477,45.647Z" transform="translate(-0.344 -26.06)" fill="#fff"/>
      <path id="Path_36829" data-name="Path 36829" d="M245.49,87.241a6.321,6.321,0,0,1,5.147,5.147.659.659,0,0,0,.653.55.876.876,0,0,0,.113-.01.664.664,0,0,0,.545-.766,7.643,7.643,0,0,0-6.228-6.228.666.666,0,0,0-.766.54A.656.656,0,0,0,245.49,87.241Z" transform="translate(-232.93 -81.705)" fill="#fff"/>
      <path id="Path_36830" data-name="Path 36830" d="M259.8,10.265A12.585,12.585,0,0,0,249.545.01a.662.662,0,1,0-.216,1.306,11.241,11.241,0,0,1,9.165,9.165.659.659,0,0,0,.653.55.877.877,0,0,0,.113-.01A.651.651,0,0,0,259.8,10.265Z" transform="translate(-236.574 0)" fill="#fff"/>
    </g>
  </g>
</svg>
