<svg xmlns="http://www.w3.org/2000/svg" width="29.758" height="32.263" viewBox="0 0 29.758 32.263">
  <g id="Group_34851" data-name="Group 34851" transform="translate(-1308.906 -326.382)">
    <path id="Path_36839" data-name="Path 36839" d="M1350.145,358.17c.5-.54.94-1.446,1.524-1.555,2.354-.438,2.844-2.037,2.747-4-.074-1.489-.4-2.964-.554-4.452-.229-2.237.145-4.259,2.381-5.622-2.339-1.638-2.739-3.873-2.262-6.465a24.852,24.852,0,0,0,.405-4.46,2.86,2.86,0,0,0-2.585-3.131c-.617-.118-1.084-1.015-1.934-1.872,4.969-.844,7.406,1.123,7.324,5.255-.034,1.727-.321,3.45-.494,5.174-.3,2.99.171,3.714,3.517,4.8-.479.693-.777,1.64-1.3,1.782-2.1.576-2.42,2.048-2.274,3.834.154,1.884.506,3.76.541,5.644C1357.263,357.29,1355.031,359.17,1350.145,358.17Z" transform="translate(-21.55 -0.021)" fill="#fff"/>
    <path id="Path_36840" data-name="Path 36840" d="M1318.583,326.505c-.591.815-.956,1.851-1.456,1.921-2.707.38-2.984,2.241-2.874,4.339.078,1.49.381,2.967.514,4.456.186,2.075-.21,3.941-2.387,5.193,3.156,1.961,2.408,4.881,2.2,7.655a28.422,28.422,0,0,0-.3,3.513,3,3,0,0,0,2.512,3c.648.16,1.132.981,2.026,1.813-4.574.958-7.259-.924-7.386-4.7a40.187,40.187,0,0,1,.544-5.866c.225-1.954.1-3.646-2.284-4.226a1.478,1.478,0,0,1-.786-1.163,1.435,1.435,0,0,1,.859-1.051c2.2-.6,2.465-2.18,2.242-4.063-.2-1.72-.528-3.433-.609-5.158C1311.2,327.951,1313.653,325.831,1318.583,326.505Z" fill="#fff"/>
  </g>
</svg>
