<svg xmlns="http://www.w3.org/2000/svg" width="36.329" height="25.892" viewBox="0 0 36.329 25.892">
  <g id="Group_34848" data-name="Group 34848" transform="translate(-753.096 -2806.289)">
    <g id="Group_34847" data-name="Group 34847" transform="translate(753.096 2806.289)">
      <path id="Path_36832" data-name="Path 36832" d="M489.542,430.045c-.5-.4-.848-.624-1.133-.908q-3.572-3.551-7.124-7.124c-.668-.672-.726-1.4-.2-1.925s1.253-.458,1.926.212q4.346,4.329,8.675,8.675a1.3,1.3,0,0,1,.014,2.166q-4.325,4.35-8.674,8.676c-.705.7-1.369.766-1.927.237s-.487-1.272.222-1.984q3.639-3.657,7.3-7.3C488.832,430.565,489.088,430.4,489.542,430.045Z" transform="translate(-455.952 -417.124)" fill="#fff"/>
      <path id="Path_36833" data-name="Path 36833" d="M361.935,430.19c.425.364.837.673,1.2,1.032q3.459,3.435,6.9,6.892c.672.675.743,1.406.23,1.931-.543.556-1.231.51-1.923-.179q-4.377-4.355-8.735-8.731a1.3,1.3,0,0,1,.009-2.111q4.357-4.376,8.735-8.731a1.237,1.237,0,1,1,1.721,1.715q-3.695,3.717-7.406,7.416C362.456,429.63,362.259,429.848,361.935,430.19Z" transform="translate(-359.064 -417.145)" fill="#fff"/>
      <path id="Path_36834" data-name="Path 36834" d="M433.481,408.2c-.052.19-.118.48-.211.761q-3.763,11.31-7.532,22.619c-.3.914-.827,1.316-1.492,1.177-.835-.174-1.16-.909-.822-1.934.872-2.644,1.757-5.284,2.637-7.925,1.631-4.9,3.255-9.8,4.907-14.69a2.34,2.34,0,0,1,.72-1.118A1.183,1.183,0,0,1,433.481,408.2Z" transform="translate(-410.211 -406.89)" fill="#fff"/>
    </g>
  </g>
</svg>
