<svg xmlns="http://www.w3.org/2000/svg" width="35.514" height="40.521" viewBox="0 0 35.514 40.521">
  <g id="Group_34853" data-name="Group 34853" transform="translate(-770.83 580.321)">
    <path id="Path_36841" data-name="Path 36841" d="M774.852-536.114c.037-.6.091-1.122.1-1.645.014-1.129,0-2.259,0-3.483-2.2-.238-4.076-.795-4.123-3.377-.036-2.007,1.057-2.953,4.037-3.5l.169-2.848,3-.317c.227-2.166.928-4.055,3.6-3.973,2.459.076,3.022,1.879,3.212,4l3.212.233c0,2.181,0,4.338,0,6.495a19.678,19.678,0,0,0,.015,2.73,17.558,17.558,0,0,0,.734,2.542,7.259,7.259,0,0,1,1.208-2.043c.953-.811,2.111-1.891,3.187-1.895.953,0,2,1.219,2.828,2.069.348.356.253,1.145.357,1.73,3.215.365,3.212.365,3.206,3.541-.005,2.659.087,5.323-.072,7.972-.037.619-.909,1.7-1.4,1.7-7.516.051-15.034-.041-22.55-.11-.13,0-.259-.139-.513-.284-.068-.812-.143-1.7-.23-2.747-2.083-.3-4.111-.858-3.957-3.59C771.013-535.316,772.729-535.982,774.852-536.114Zm23.139,8.328v-9.838l-3.317-.3a20.846,20.846,0,0,0-.657-3.579c-.089-.244-1.684-.306-1.747-.138a30.086,30.086,0,0,0-.941,3.753l-3.255.277-.271,3.111a20.146,20.146,0,0,0-3.478.93,2.29,2.29,0,0,0,0,1.771,20.167,20.167,0,0,0,3.461.843l.337,3.164Zm-20.629-11.33.676-.2c.253-2.006.708-3.9,3.141-4.048,2.37-.147,3.426,1.167,3.6,3.43.018.235.674.626.971.575a1.178,1.178,0,0,0,.7-.894c.053-3.08.031-6.162.031-9.245l-3.941-.447c.666-1.653,1.359-3.512-.736-3.69-3.019-.258-1.37,2.38-1.748,3.863l-3.47.221-.253,3.046a28.552,28.552,0,0,0-3.725,1.049c-.214.091-.217,1.5-.036,1.571a34.462,34.462,0,0,0,3.892,1.034,9.079,9.079,0,0,0,.036,1.994A7.12,7.12,0,0,0,777.362-539.116Zm-1.041,4.633a28.5,28.5,0,0,0-3.633,1c-.211.086-.232,1.483-.044,1.562a29.4,29.4,0,0,0,3.641,1.039c.067.7.176,1.859.292,3.08H786.2l.4-.53c-.454-.4-.862-1.054-1.369-1.143a3.052,3.052,0,0,1-2.869-3.235c0-1.836,1.125-2.833,2.906-3.275.495-.123.842-.843,1.554-1.609l-3.658-.3a20.988,20.988,0,0,0-.7-3.6c-.093-.249-1.676-.32-1.748-.141a29.045,29.045,0,0,0-1.021,3.755l-3.192.276C776.433-536.355,776.367-535.245,776.321-534.482Z" transform="translate(0 -13.634)" fill="#fff"/>
    <path id="Path_36842" data-name="Path 36842" d="M813.606-564.323a.6.6,0,0,1-.22.052c-4.792-.808-4.8-.809-3.471-5.5q1.081-3.827,2.194-7.645c.037-.13.192-.225.4-.459l2.851.707c.7-2.251,2.077-3.714,4.53-2.947,2.3.718,2.384,2.676,1.911,4.794,2.509.235,3.541,1.357,2.188,3.843,2.088.877,3.832,1.988,3,4.534-.742,2.267-2.57,2.509-4.565,2.084-1.426,3.386-1.467,3.4-4.679,1.874l-1.8-3.33-2.516,1.718ZM813.33-576l-2.566,9.466.481.567a8.917,8.917,0,0,0,2.3-.921c2.116-1.642,4.264-1.027,5.183,1.529a12.472,12.472,0,0,0,1.389,2.1l1.5-4.2c1.485.953,3.148,2.333,3.849.02.818-2.7-1.892-1.91-3.25-2.485.2-1.241.377-2.391.548-3.476l-2.932-1.127a20.744,20.744,0,0,0,.123-3.7c-.036-.261-1.545-.686-1.691-.5a23.761,23.761,0,0,0-1.868,3.307Z" transform="translate(-20.856 0)" fill="#fff"/>
  </g>
</svg>
