<svg xmlns="http://www.w3.org/2000/svg" width="35.424" height="31.007" viewBox="0 0 35.424 31.007">
  <g id="Group_34850" data-name="Group 34850" transform="translate(-964 -2610)">
    <g id="Group_34849" data-name="Group 34849" transform="translate(964 2610)">
      <path id="Path_36835" data-name="Path 36835" d="M98.424,451.256v24.492a2,2,0,0,1-2,1.02c-3.386-.039-6.772-.016-10.158-.016h-.829c.234.711.467,1.308.623,1.925.178.7.406,1.232,1.312,1.074.414-.072.688.237.7.678a.671.671,0,0,1-.722.744c-.184.01-.368.006-.553.006H76.635c-.828,0-1.657,0-2.485,0-.491,0-.8-.231-.792-.747.009-.478.308-.691.767-.7a2.475,2.475,0,0,0,.55-.013c.152-.039.361-.137.406-.26.312-.858.589-1.728.913-2.7H75.16c-3.386,0-6.772-.021-10.158.017a2,2,0,0,1-2-1.02V451.256a1.92,1.92,0,0,1,1.965-1.082q15.747.023,31.494,0A1.93,1.93,0,0,1,98.424,451.256Zm-1.541,21.03V451.708H64.53v20.578Zm.022,1.563H64.535v1.389H96.9Zm-20.315,5.826h8.243c-.3-.917-.564-1.771-.879-2.605a.66.66,0,0,0-.509-.3q-2.732-.033-5.464,0a.657.657,0,0,0-.507.3C77.157,477.9,76.894,478.758,76.589,479.675Z" transform="translate(-63 -450.173)" fill="#fff"/>
      <path id="Path_36836" data-name="Path 36836" d="M220.418,508.274,215,505.147l.744-1.271c2.109,1.214,4.188,2.4,6.253,3.607a1.087,1.087,0,0,1-.076,1.634c-2.03,1.179-4.069,2.342-6.18,3.555L215,511.407Z" transform="translate(-193.965 -496.445)" fill="#fff"/>
      <path id="Path_36837" data-name="Path 36837" d="M125.2,503.866l.735,1.275-5.415,3.124,5.413,3.128-.735,1.27-2-1.145q-2.034-1.167-4.067-2.336a1.05,1.05,0,0,1-.032-1.811C121.116,506.211,123.128,505.059,125.2,503.866Z" transform="translate(-110.911 -496.436)" fill="#fff"/>
      <path id="Path_36838" data-name="Path 36838" d="M177.181,486.569l1.432.361-3.3,13.212-1.436-.338Z" transform="translate(-158.532 -481.533)" fill="#fff"/>
    </g>
  </g>
</svg>
