<svg xmlns="http://www.w3.org/2000/svg" width="37.434" height="32.952" viewBox="0 0 37.434 32.952">
  <g id="Group_34846" data-name="Group 34846" transform="translate(-719 -2837)">
    <g id="Group_34845" data-name="Group 34845" transform="translate(719 2837)">
      <path id="Path_36831" data-name="Path 36831" d="M-177.869,286.939c-1.56,4.526-3.022,8.7-4.429,12.891-.388,1.157-.923,2.1-2.265,2.1-1.312,0-1.932-.9-2.347-2.048-2.806-7.745-5.641-15.48-8.443-23.226-.33-.913-.614-1.639-1.854-1.558a1.311,1.311,0,0,1-1.425-1.588c.079-.984.77-1.215,1.623-1.213,3.006.009,6.012.027,9.017.008.93-.006,1.836.03,1.93,1.2s-.693,1.586-1.741,1.65a7.016,7.016,0,0,0-.721.131l5.726,17.047c1.16-3.465,2.227-6.525,3.175-9.621A3.318,3.318,0,0,0-180,280.97c-.427-1.25-.946-2.47-1.357-3.725-.385-1.174-.644-2.315-2.337-2.227-.359.018-1.088-.981-1.06-1.478a1.838,1.838,0,0,1,1.353-1.188q4.809-.163,9.625,0c.518.017,1.468.8,1.422,1.107a3.442,3.442,0,0,1-1.19,1.637c-.2.191-.675.093-1.2.143l5.539,16.5c1.035-3.764,3.383-7.218,2.42-11.3a19.382,19.382,0,0,0-1.4-3.342,23.424,23.424,0,0,1-1.393-3.024,3.883,3.883,0,0,1,2.18-4.8,3.93,3.93,0,0,1,5.033,2.013,9.492,9.492,0,0,1,.949,6.531,77.314,77.314,0,0,1-2.251,8.056c-1.564,4.73-3.274,9.412-4.884,14.128-.383,1.12-.971,1.955-2.226,1.941a2.414,2.414,0,0,1-2.285-1.915c-1.353-3.781-2.74-7.549-4.118-11.321C-177.35,288.229-177.542,287.77-177.869,286.939Zm-4.442-13.223c2.391.594,2.01,3.122,2.784,4.838.839,1.861,2.129,3.781.978,5.59.585.348,1.219.5,1.386.866.591,1.29,1.026,2.651,1.514,3.988,1.271,3.485,2.518,6.98,3.836,10.447.166.437.7.734,1.068,1.1a4.335,4.335,0,0,0,.893-1.054c.59-1.5,1.091-3.026,1.7-4.747-1.259.563-1.488-.116-1.747-.891-2-5.974-4.022-11.94-6.033-17.91-.626-1.86-.522-2.005,1.687-2.223Zm.3,21.127c-1.362.579-1.452-.292-1.7-1.022-1.988-5.921-4-11.835-5.965-17.762a3.049,3.049,0,0,1-.172-1.86c.12-.312,1-.334,1.534-.484h-7.526a7.174,7.174,0,0,1,1.422,1.751c.855,2,1.524,4.089,2.271,6.14,2.153,5.917,4.292,11.839,6.49,17.739.177.475.76.8,1.154,1.192a5.7,5.7,0,0,0,.926-1.23C-183.031,297.942-182.59,296.538-182.006,294.843Zm13.942-1.323.227.08a6.686,6.686,0,0,0,.375-.765c1.347-3.888,2.742-7.761,3.994-11.68a12.745,12.745,0,0,0,.772-4.479,17.376,17.376,0,0,0-1.233-5.233,2.1,2.1,0,0,0-2.762-1,2.174,2.174,0,0,0-1.668,2.432,7.979,7.979,0,0,0,1.174,3.223,10.964,10.964,0,0,1,1.337,10.033C-166.627,288.583-167.328,291.057-168.064,293.52Z" transform="translate(198.638 -268.979)"/>
    </g>
  </g>
</svg>
